<svg width="388" height="388" viewBox="0 0 388 388" fill="none" xmlns="http://www.w3.org/2000/svg">
<path d="M37.3099 223.276C31.2834 222.548 26.75 217.434 26.75 211.363L26.75 179.612C26.75 173.342 31.5777 168.129 37.8296 167.648L65.6965 165.504C69.7793 165.19 73.4202 162.816 75.3539 159.206L78.3278 153.655C79.2614 151.912 79.75 149.965 79.75 147.988L79.75 126.89C79.75 120.712 84.4401 115.544 90.5888 114.946L111.64 112.9C114.303 112.641 116.804 111.499 118.744 109.656L122.015 106.548C124.4 104.283 125.75 101.138 125.75 97.8483L125.75 83.0664C125.75 76.815 130.549 71.6109 136.78 71.1057L159.524 69.2616C161.637 69.0903 163.667 68.3623 165.407 67.1517L169.748 64.1318C172.607 62.1429 174.461 59.0099 174.828 55.5465L176.611 38.7344C177.259 32.6311 182.407 28 188.545 28L211.25 28C217.877 28 223.25 33.3726 223.25 40L223.25 57C223.25 63.6274 217.877 69 211.25 69H194.065C190.975 69 188.004 70.1922 185.77 72.3283L180.917 76.9706C178.872 78.927 177.584 81.5434 177.281 84.3574L175.404 101.785C174.748 107.88 169.603 112.5 163.473 112.5L144.842 112.5C141.885 112.5 139.033 113.592 136.831 115.565L129.739 121.923C127.201 124.199 125.75 127.448 125.75 130.858L125.75 152.199C125.75 156.144 127.689 159.837 130.937 162.077L137.174 166.379C139.177 167.76 141.553 168.5 143.987 168.5L158.262 168.5C161.156 168.5 163.953 169.546 166.136 171.445L170.124 174.912C172.745 177.191 174.25 180.494 174.25 183.968L174.25 207.73C174.25 211.658 172.327 215.337 169.103 217.581L165.441 220.128C163.679 221.354 161.621 222.084 159.481 222.244L140.357 223.671C134.093 224.139 129.25 229.357 129.25 235.638L129.25 252.374C129.25 256.222 131.095 259.836 134.212 262.093L140.99 267.001C142.794 268.308 144.927 269.087 147.148 269.25L166.63 270.682C172.899 271.143 177.75 276.364 177.75 282.65L177.75 297.153C177.75 300.844 179.448 304.329 182.354 306.603L186.375 309.75C188.249 311.217 190.517 312.093 192.891 312.268L212.13 313.682C218.399 314.143 223.25 319.364 223.25 325.65V345.5C223.25 352.127 217.877 357.5 211.25 357.5L188.452 357.5C182.354 357.5 177.225 352.926 176.53 346.868L174.801 331.804C174.448 328.722 172.914 325.896 170.522 323.92L165.325 319.627C163.64 318.235 161.608 317.33 159.447 317.009L135.986 313.522C130.104 312.647 125.75 307.598 125.75 301.652L125.75 287.845C125.75 285.037 124.766 282.319 122.969 280.162L118.995 275.394C116.92 272.904 113.927 271.36 110.696 271.111L93.1929 269.765C87.4295 269.321 82.8012 264.832 82.1822 259.085L80.1386 240.109C79.8852 237.756 78.9415 235.53 77.4263 233.712L75.2995 231.159C73.3408 228.809 70.5584 227.296 67.5209 226.928L37.3099 223.276Z" fill="url(#paint0_linear_233_143)"/>
<rect x="268" y="171" width="46" height="45" rx="12" fill="url(#paint1_linear_233_143)"/>
<path d="M191 266C191 259.373 196.373 254 203 254H206.5H213.64C214.038 254 214.427 253.882 214.757 253.662L216.165 252.723C216.528 252.482 216.57 251.965 216.252 251.668V251.668C215.804 251.25 216.1 250.5 216.712 250.5H218.741C219.217 250.5 219.664 250.73 219.941 251.118L221.306 253.028C221.748 253.648 222.43 254.054 223.185 254.148L224.688 254.336C225.404 254.425 225.901 255.093 225.783 255.804L225.657 256.561C225.579 257.028 225.072 257.286 224.648 257.074V257.074C224.551 257.025 224.443 257 224.334 257H224.034C223.684 257 223.341 257.093 223.039 257.269L223.02 257.28C222.388 257.648 222 258.325 222 259.056V261.75V269.5V273C222 279.627 216.627 285 210 285H203C196.373 285 191 279.627 191 273V266Z" fill="url(#paint2_linear_233_143)"/>
<path d="M248.165 131.393C247.765 133.001 246.137 133.98 244.53 133.581L239.904 132.431L236.524 131.59C236.271 131.527 236.005 131.54 235.76 131.628L235.065 131.878C234.828 131.963 234.693 132.213 234.751 132.458V132.458C234.849 132.868 234.421 133.204 234.046 133.013L233.433 132.7C233.257 132.61 233.12 132.459 233.048 132.276L232.794 131.633C232.522 130.947 231.976 130.406 231.288 130.14L230.536 129.85C230.501 129.837 230.468 129.819 230.437 129.799V129.799C229.987 129.497 230.266 128.794 230.8 128.883L231.396 128.983C231.465 128.994 231.535 128.994 231.604 128.983L232.001 128.917V128.917C232.519 128.765 232.916 128.351 233.047 127.828L233.305 126.788L234.242 123.02L235.392 118.395C235.792 116.787 237.42 115.808 239.027 116.208L248.278 118.508C249.886 118.908 250.865 120.535 250.465 122.143L248.165 131.393Z" fill="url(#paint3_linear_233_143)"/>
<path d="M206.256 129.852C207.772 128.653 209.648 128 211.581 128H227.45C229.408 128 231.301 128.701 232.787 129.976V129.976C234.601 131.533 235.645 133.804 235.645 136.195V220.174C235.645 224.855 238.495 228.846 244.195 232.146C249.895 235.447 256.735 237.097 264.715 237.097H316.324C318.706 237.097 321.004 237.982 322.77 239.581V239.581C324.19 240.865 325 242.69 325 244.604V257.685C325 259.497 324.327 261.244 323.112 262.588V262.588C321.147 264.76 318.354 266 315.424 266H306H264.715C253.419 266 245.076 265.18 235.645 262C226.318 258.759 217.596 253.401 212 248C206.507 242.539 204.5 233.601 204.5 227L203 143.374V136.581C203 133.958 204.199 131.48 206.256 129.852V129.852Z" fill="url(#paint4_linear_233_143)"/>
<path d="M287.422 195.883H289.482V202.318C289.482 202.774 289.639 203.161 289.951 203.48C290.264 203.799 290.638 203.959 291.074 203.959H294.658V195.883H296.719V203.949C296.719 204.516 296.517 205.001 296.113 205.404C295.71 205.801 295.218 206 294.639 206H291.074C290.404 206 289.792 205.837 289.238 205.512C288.685 205.18 288.242 204.737 287.91 204.184C287.585 203.63 287.422 203.018 287.422 202.348V195.883ZM298.965 197.943C298.965 197.377 299.167 196.892 299.57 196.488C299.974 196.085 300.459 195.883 301.025 195.883H304.609C305.28 195.883 305.892 196.049 306.445 196.381C306.999 196.706 307.438 197.143 307.764 197.689C308.096 198.236 308.262 198.845 308.262 199.516V202.348C308.262 203.018 308.096 203.63 307.764 204.184C307.438 204.737 306.999 205.18 306.445 205.512C305.892 205.837 305.28 206 304.609 206H302.197V203.939H304.609C305.052 203.939 305.426 203.783 305.732 203.471C306.045 203.152 306.201 202.771 306.201 202.328V199.535C306.201 199.092 306.045 198.718 305.732 198.412C305.426 198.1 305.052 197.943 304.609 197.943H301.025V209.77H298.965V197.943Z" fill="white"/>
<rect x="190" y="163.9" width="14" height="14" rx="4" transform="rotate(-45 190 163.9)" fill="url(#paint5_linear_233_143)"/>
<defs>
<linearGradient id="paint0_linear_233_143" x1="97.625" y1="97.625" x2="290.375" y2="290.375" gradientUnits="userSpaceOnUse">
<stop stop-color="#179FA4"/>
<stop offset="1" stop-color="#4D76C4"/>
</linearGradient>
<linearGradient id="paint1_linear_233_143" x1="291" y1="171" x2="291" y2="216" gradientUnits="userSpaceOnUse">
<stop stop-color="#179FA4"/>
<stop offset="1" stop-color="#4D76C4"/>
</linearGradient>
<linearGradient id="paint2_linear_233_143" x1="206.5" y1="254" x2="206.5" y2="285" gradientUnits="userSpaceOnUse">
<stop stop-color="#3F81BC"/>
<stop offset="1" stop-color="#437FBF"/>
</linearGradient>
<linearGradient id="paint3_linear_233_143" x1="239.905" y1="132.431" x2="243.653" y2="117.358" gradientUnits="userSpaceOnUse">
<stop stop-color="#2496AC"/>
<stop offset="1" stop-color="#2495AC"/>
</linearGradient>
<linearGradient id="paint4_linear_233_143" x1="281.224" y1="79.1404" x2="281.224" y2="304.392" gradientUnits="userSpaceOnUse">
<stop stop-color="#179FA4"/>
<stop offset="1" stop-color="#4D76C4"/>
</linearGradient>
<linearGradient id="paint5_linear_233_143" x1="197" y1="163.9" x2="197" y2="177.9" gradientUnits="userSpaceOnUse">
<stop stop-color="#2991AF"/>
<stop offset="1" stop-color="#2E8EB1"/>
</linearGradient>
</defs>
</svg>
