<svg width="54" height="54" viewBox="0 0 54 54" fill="none" xmlns="http://www.w3.org/2000/svg">
<circle cx="27" cy="27" r="27" fill="#144144"/>
<path d="M27 11C25.075 11 23.2289 11.7647 21.8678 13.1258C20.5066 14.487 19.7419 16.3331 19.7419 18.2581C19.7419 20.183 20.5066 22.0291 21.8678 23.3903C23.2289 24.7514 25.075 25.5161 27 25.5161C28.925 25.5161 30.7711 24.7514 32.1322 23.3903C33.4934 22.0291 34.2581 20.183 34.2581 18.2581C34.2581 16.3331 33.4934 14.487 32.1322 13.1258C30.7711 11.7647 28.925 11 27 11ZM19.2581 29.3871C17.3331 29.3871 15.487 30.1518 14.1258 31.5129C12.7647 32.8741 12 34.7202 12 36.6452V38.9445C12 40.4039 13.0568 41.6464 14.4968 41.8806C22.7768 43.2335 31.2232 43.2335 39.5032 41.8806C40.1996 41.7661 40.8328 41.4081 41.29 40.8704C41.7472 40.3328 41.9988 39.6503 42 38.9445V36.6452C42 34.7202 41.2353 32.8741 39.8742 31.5129C38.513 30.1518 36.6669 29.3871 34.7419 29.3871H34.0839C33.7226 29.3884 33.3716 29.4439 33.031 29.5535L31.3548 30.1013C28.5251 31.0251 25.4749 31.0251 22.6452 30.1013L20.969 29.5535C20.6293 29.4446 20.2748 29.3884 19.9181 29.3871H19.2581Z" fill="white"/>
</svg>
