<svg width="32" height="21" viewBox="0 0 32 21" fill="none" xmlns="http://www.w3.org/2000/svg">
<path d="M13.5459 0.417145C15.1351 -0.139048 16.8661 -0.139048 18.4553 0.417145L31.0055 4.8097C32.3315 5.27537 32.3315 7.15129 31.0055 7.61697L18.4553 12.0095C16.8661 12.5657 15.1351 12.5657 13.5459 12.0095L4.4487 8.82244C4.11405 9.07021 3.86289 9.41412 3.72872 9.80829C3.9463 9.95899 4.12448 10.1598 4.24823 10.3938C4.37197 10.6277 4.43767 10.888 4.43977 11.1527C4.44188 11.4174 4.38033 11.6787 4.26032 11.9146C4.14031 12.1505 3.96535 12.3541 3.75018 12.5082L3.75679 12.538L5.20171 19.0426C5.23383 19.1873 5.23306 19.3374 5.19947 19.4818C5.16588 19.6261 5.10031 19.7612 5.00761 19.8768C4.91491 19.9925 4.79743 20.0859 4.66383 20.1502C4.53023 20.2144 4.38392 20.2479 4.23568 20.248H1.34419C1.19581 20.2481 1.0493 20.2148 0.915499 20.1507C0.781695 20.0866 0.664005 19.9932 0.571118 19.8775C0.478231 19.7618 0.41252 19.6267 0.378836 19.4822C0.345152 19.3377 0.344355 19.1874 0.376505 19.0426L1.82142 12.5363L1.82968 12.5082C1.5983 12.3429 1.41353 12.1206 1.29327 11.8629C1.17302 11.6052 1.12135 11.3208 1.14328 11.0373C1.1652 10.7538 1.25998 10.4807 1.41842 10.2446C1.57686 10.0084 1.79361 9.81718 2.04766 9.6894C2.16927 9.15755 2.40166 8.65732 2.72966 8.22136L0.995756 7.61532C-0.331918 7.14964 -0.331918 5.27372 0.995756 4.80805L13.5459 0.417145Z" fill="#B2E0E3"/>
<path d="M6.74075 10.8865L6.19251 15.2692C6.09838 16.0156 6.40222 16.7884 7.0512 17.2442C8.9618 18.59 12.0762 20.2496 16.0014 20.2496C19.2648 20.2597 22.4408 19.1955 25.0392 17.2211C25.6419 16.7587 25.9012 16.0205 25.8153 15.3187L25.2605 10.8849L18.4553 13.2661C16.8661 13.8223 15.1351 13.8223 13.5459 13.2661L6.74075 10.8865Z" fill="#B2E0E3"/>
</svg>
